<?xml version="1.0" encoding="UTF-8" standalone="no"?>
<svg
   viewBox="0 0 209 60"
   fill="none"
   version="1.1"
   id="svg45141"
   sodipodi:docname="logo-dark-lettered.svg"
   inkscape:version="1.1.2 (0a00cf5339, 2022-02-04)"
   xmlns:inkscape="http://www.inkscape.org/namespaces/inkscape"
   xmlns:sodipodi="http://sodipodi.sourceforge.net/DTD/sodipodi-0.dtd"
   xmlns="http://www.w3.org/2000/svg"
   xmlns:svg="http://www.w3.org/2000/svg">
  <defs
     id="defs45145" />
  <sodipodi:namedview
     id="namedview45143"
     pagecolor="#505050"
     bordercolor="#eeeeee"
     borderopacity="1"
     inkscape:pageshadow="0"
     inkscape:pageopacity="0"
     inkscape:pagecheckerboard="0"
     showgrid="false"
     inkscape:zoom="6.0287081"
     inkscape:cx="104.5"
     inkscape:cy="29.940079"
     inkscape:window-width="2490"
     inkscape:window-height="1376"
     inkscape:window-x="70"
     inkscape:window-y="27"
     inkscape:window-maximized="1"
     inkscape:current-layer="svg45141" />
  <path
     style="fill:#ffffff;stroke-width:0.999999"
     d="m 32.336659,53.974387 c -0.648349,-0.330445 -0.661676,-0.4149 -0.661676,-4.192954 0,-2.170039 0.05931,-3.716981 0.148455,-3.872191 0.171454,-0.298538 1.576959,-0.995316 1.776222,-0.880563 0.07468,0.04301 0.133875,1.586939 0.133875,3.491781 v 3.414682 l 0.330837,0.07473 c 0.181962,0.0411 4.201655,0.05769 8.932642,0.03688 l 8.601806,-0.03787 V 40.157087 28.305281 l -8.766643,-0.03532 c -7.155413,-0.02884 -8.796513,-0.002 -8.929135,0.147113 -0.108975,0.122351 -0.166383,1.385109 -0.174321,3.834201 -0.0083,2.598456 -0.06072,3.679911 -0.181315,3.749365 -0.238808,0.137532 -1.467783,0.05023 -1.688622,-0.119953 -0.140095,-0.107955 -0.183801,-1.191759 -0.183801,-4.557839 v -4.416202 l 0.360579,-0.362545 0.360578,-0.362546 10.336534,0.002 c 5.685099,9.38e-4 10.409344,0.04738 10.498331,0.102763 0.48184,0.299798 0.494722,0.652923 0.502832,13.785546 0.0087,14.19021 0.03173,13.773002 -0.769011,13.972875 -0.634171,0.158297 -20.311209,0.09112 -20.628167,-0.07042 z M 29.736551,50.45729 c -1.482268,-0.628469 -3.139572,-2.526447 -2.769189,-3.171338 0.108194,-0.188375 0.312295,-0.280074 0.63245,-0.284146 0.259992,-0.0034 0.737378,-0.100616 1.060863,-0.216242 0.957585,-0.342271 1.748566,-0.460433 1.869818,-0.279323 0.122601,0.183113 0.136182,3.430619 0.01627,3.892701 -0.09314,0.358955 -0.100054,0.359455 -0.810231,0.05834 z m 11.532756,-2.520577 c -0.268669,-0.120736 -0.330843,-0.261786 -0.330843,-0.750538 0,-0.598834 -0.100994,-0.746478 -0.951702,-1.391294 -0.134473,-0.101931 -0.206937,-0.276527 -0.161037,-0.387998 0.04592,-0.111473 0.08346,-0.290116 0.08346,-0.396991 0,-0.115185 0.147585,-0.194316 0.362427,-0.194316 0.461486,0 0.666849,-0.356796 0.666849,-1.158556 0,-0.538981 0.05285,-0.650948 0.370988,-0.786023 0.313599,-0.133143 0.437783,-0.111491 0.802764,0.139951 0.54997,0.378894 0.954892,0.377648 1.24163,-0.004 0.191665,-0.254989 0.28896,-0.280849 0.633255,-0.168328 0.342059,0.111794 0.419566,0.2306 0.487057,0.746575 0.104301,0.797394 0.355765,1.206593 0.806214,1.311938 0.509645,0.119191 0.516729,0.818123 0.01046,1.033066 -0.412438,0.175107 -0.903958,1.095297 -0.765128,1.432419 0.11511,0.279525 -0.290509,0.741136 -0.651242,0.741136 -0.139311,0 -0.335657,-0.09249 -0.436334,-0.205525 -0.228921,-0.257029 -0.840835,-0.257029 -1.323356,0 -0.431952,0.230095 -0.419907,0.22955 -0.845476,0.03832 z m 2.085566,-1.497747 c 1.037246,-0.440386 0.564218,-2.171451 -0.593374,-2.171451 -0.850012,0 -1.323318,0.912187 -0.949149,1.829243 0.193461,0.47415 0.875414,0.625441 1.542523,0.342208 z m -23.186936,-0.48029 c -0.624299,-0.413914 -0.886385,-1.054904 -0.751857,-1.838838 0.145627,-0.84861 1.472208,-1.969071 3.818592,-3.225265 1.492313,-0.798944 4.676939,-2.244672 4.944537,-2.244672 0.123696,0 0.302978,-0.08766 0.398406,-0.194816 0.09543,-0.107145 0.430561,-0.235279 0.744736,-0.284739 0.31418,-0.04946 0.649308,-0.177593 0.74474,-0.284738 0.09542,-0.10715 0.262344,-0.194817 0.37092,-0.194817 0.108583,0 0.503237,-0.09675 0.877018,-0.214996 0.627342,-0.19847 0.734499,-0.196606 1.393596,0.02423 0.392706,0.131582 0.838263,0.397893 0.990139,0.591791 0.240642,0.307233 0.536029,1.253639 0.839208,2.688797 0.107195,0.507414 -0.467389,1.765302 -1.057576,2.315252 -0.51963,0.484205 -1.620217,1.171634 -1.875803,1.171634 -0.111476,0 -0.303304,0.09376 -0.426288,0.208362 -0.122986,0.114602 -0.524035,0.260665 -0.891218,0.324585 -0.367187,0.06392 -0.751004,0.178987 -0.852929,0.255699 -0.10193,0.07671 -0.483078,0.184438 -0.847002,0.239385 -0.363922,0.05495 -0.793975,0.164812 -0.955665,0.244124 -0.161695,0.07932 -0.724122,0.228475 -1.249837,0.331456 -0.525715,0.102985 -1.220515,0.244045 -1.544004,0.313464 -0.323487,0.06942 -1.382954,0.128905 -2.354376,0.132186 -1.681064,0.0058 -1.792693,-0.01157 -2.315337,-0.358102 z m -2.310902,-4.072071 c -0.373849,-1.678049 0.780537,-3.458945 2.775935,-4.282509 1.043524,-0.430694 1.70688,-0.441435 2.440209,-0.03953 1.261412,0.691348 1.292242,1.171339 0.11028,1.716992 -0.465014,0.214672 -1.010898,0.489831 -1.213076,0.611466 -1.421787,0.855383 -1.762982,1.095416 -2.456289,1.728009 -0.428214,0.39072 -0.778581,0.776075 -0.778581,0.856345 0,0.08026 -0.160724,0.145944 -0.35717,0.145944 -0.31357,0 -0.377213,-0.08994 -0.521308,-0.73673 z m 28.264569,0.321416 c -0.214976,-0.08052 -0.330838,-0.239728 -0.330838,-0.454607 0,-0.218125 -0.178606,-0.457633 -0.52473,-0.703635 -0.447484,-0.318045 -0.615648,-0.360245 -1.142308,-0.286652 -0.57049,0.07972 -0.636974,0.05569 -0.872139,-0.315273 -0.336352,-0.530584 -0.321993,-0.998185 0.0395,-1.286612 0.454177,-0.362365 0.403393,-1.32837 -0.0991,-1.884824 l -0.39317,-0.435404 0.353342,-0.602723 c 0.352007,-0.60045 0.536133,-0.68045 1.094678,-0.475617 0.527957,0.19361 1.195909,-0.231125 1.525432,-0.96998 0.284675,-0.638312 0.319363,-0.664289 0.886902,-0.664289 0.563984,0 0.597737,0.02457 0.747942,0.544352 0.103365,0.357694 0.333928,0.669888 0.672393,0.91045 0.445266,0.316465 0.565172,0.344827 0.884555,0.209227 0.576337,-0.244691 0.744861,-0.192941 1.076309,0.330519 0.308036,0.486492 0.41001,1.019782 0.195001,1.019782 -0.06247,0 -0.236053,0.211877 -0.385716,0.470838 -0.330475,0.571818 -0.224065,1.370296 0.211567,1.587544 0.370336,0.184687 0.36462,0.544847 -0.01823,1.1495 -0.292405,0.461808 -0.334178,0.479638 -0.941858,0.402028 -0.542699,-0.06931 -0.713329,-0.02615 -1.164415,0.294431 -0.348539,0.247719 -0.528534,0.487918 -0.528534,0.705318 0,0.227803 -0.116543,0.370953 -0.377168,0.46329 -0.440245,0.155971 -0.473294,0.15569 -0.909425,-0.0076 z m 1.452959,-2.633269 c 0.580084,-0.501838 0.76495,-1.06828 0.569449,-1.744814 -0.463147,-1.602734 -2.364952,-1.637473 -3.013496,-0.05506 -0.239342,0.583983 -0.236937,0.612949 0.09782,1.178414 0.558022,0.942623 1.642853,1.229966 2.346234,0.621452 z m -11.525058,-0.61096 c -0.274356,-0.06392 -0.463899,-0.54112 -0.378872,-0.953876 0.04679,-0.227195 0.254127,-0.254159 2.218609,-0.28853 l 2.16699,-0.03792 v 0.605378 c 0,0.51445 -0.04971,0.616533 -0.330839,0.679644 -0.386752,0.08682 -3.29903,0.0831 -3.675888,-0.0049 z m -10.403137,-1.52693 c 0,-0.365739 -0.03654,-1.028547 -0.08114,-1.472912 -0.04464,-0.444364 -0.01603,-0.897293 0.06354,-1.006502 0.10815,-0.148443 0.676213,-0.226079 2.249964,-0.307515 2.631869,-0.136194 2.766962,-0.111795 2.766962,0.499774 0,0.73033 -0.233818,1.152513 -0.693237,1.251731 -0.22526,0.04866 -0.707315,0.212715 -1.071235,0.364585 -0.363923,0.151876 -1.025604,0.427908 -1.470393,0.613399 -0.444796,0.185496 -0.984346,0.423924 -1.199005,0.529844 -0.214655,0.105914 -0.429702,0.192575 -0.477877,0.192575 -0.04818,0 -0.0876,-0.299239 -0.0876,-0.664979 z M 35.70487,35.309176 c -0.04429,-0.107567 -0.05935,-0.399413 -0.03341,-0.64854 0.06188,-0.594862 0.185095,-0.616003 3.102051,-0.532231 l 2.385526,0.0685 v 0.616567 0.616569 l -2.686805,0.03737 c -2.218471,0.03085 -2.700848,0.0034 -2.767351,-0.15823 z M 18.956076,33.724783 c -1.42605,-0.17597 -2.759926,-0.438421 -3.25709,-0.640854 -0.254838,-0.103766 -0.55259,-0.188876 -0.661675,-0.189131 -0.109087,-2.73e-4 -0.665175,-0.177746 -1.235752,-0.394415 -2.692118,-1.022298 -3.157234,-1.354872 -2.953368,-2.111759 0.07463,-0.277105 0.202738,-0.346432 0.745456,-0.403435 1.222088,-0.128355 2.430341,-1.384726 3.038961,-3.159991 0.363347,-1.05984 0.389676,-3.56359 0.04794,-4.558444 -0.522023,-1.519679 -1.34297,-2.665952 -2.509489,-3.503961 -0.364154,-0.2616 -1.564708,-0.528078 -1.952925,-0.433479 -0.197041,0.04802 -0.2856396,-0.03051 -0.341454,-0.30258 -0.041463,-0.202076 -0.043818,-0.479855 -0.00531,-0.617279 0.096132,-0.342556 3.255075,-1.756611 5.04107,-2.256566 0.444795,-0.124514 1.014638,-0.309368 1.266312,-0.410783 0.251675,-0.101421 0.781019,-0.22905 1.17632,-0.283626 0.395295,-0.05457 0.975169,-0.18294 1.288604,-0.285258 0.313437,-0.102319 0.782635,-0.186036 1.042666,-0.186036 0.260031,0 0.797594,-0.09138 1.194589,-0.203072 0.396995,-0.111688 1.251147,-0.269238 1.898124,-0.350107 1.243021,-0.155376 2.13207,-0.391285 2.13207,-0.565742 0,-0.149355 0.845786,-0.936306 1.006315,-0.936306 0.0737,0 0.222083,-0.09891 0.329749,-0.219794 0.10767,-0.120889 0.347357,-0.273505 0.532644,-0.339147 0.397446,-0.140809 0.449475,-0.645174 0.123896,-1.201114 -0.323772,-0.552853 -0.816291,-1.679152 -0.816291,-1.866709 0,-0.44867 -0.721119,-1.39439 -1.286844,-1.687653 -0.454345,-0.235524 -0.66635,-0.464246 -0.853427,-0.920717 -0.240897,-0.587764 -0.238761,-0.627486 0.06628,-1.232193 0.173361,-0.34367 0.474209,-0.692358 0.668547,-0.774873 0.373542,-0.158591 1.699514,-0.04489 1.699514,0.145743 0,0.05921 0.132339,0.249839 0.29408,0.423616 0.36392,0.390991 0.410539,1.520561 0.07353,1.781196 -0.275806,0.213294 -0.280303,0.550666 -0.01402,1.050765 0.509329,0.956509 0.822728,1.667968 0.822728,1.867724 0,0.119176 0.06437,0.253751 0.14304,0.299061 0.07866,0.04532 0.209873,0.31364 0.291547,0.596289 0.220437,0.762812 0.642564,1.118702 1.326932,1.118702 0.315561,0 0.610011,0.05466 0.654328,0.121482 0.04429,0.06681 0.324645,0.164149 0.622961,0.216301 0.298312,0.05216 0.812505,0.301063 1.142646,0.553148 l 0.600264,0.458339 4.725325,0.04469 c 4.115659,0.03894 4.760489,0.07354 4.997873,0.268268 0.149899,0.122963 0.415544,0.264106 0.590326,0.313654 0.635855,0.180257 1.382463,1.442788 1.586392,2.682629 0.05578,0.339114 0.170984,0.825154 0.256027,1.080088 0.14212,0.426058 0.362201,1.739585 0.70286,4.19499 0.153665,1.107609 0.193339,3.643279 0.062,3.962232 -0.07209,0.175058 -0.339682,0.216728 -1.391697,0.216728 -1.559759,0 -1.605171,-0.04322 -1.610387,-1.532413 -0.0019,-0.551298 -0.06726,-1.248994 -0.145171,-1.550425 -0.07791,-0.301431 -0.184329,-1.287941 -0.236471,-2.19224 -0.05215,-0.904302 -0.185317,-1.852095 -0.295944,-2.106211 -0.110627,-0.25412 -0.201139,-0.655991 -0.201139,-0.89305 0,-0.237055 -0.162392,-0.653701 -0.360866,-0.925872 -0.43321,-0.594063 -0.68321,-0.640034 -3.682717,-0.677245 -3.259601,-0.04041 -2.838427,-0.169201 -4.487703,1.371938 -1.414603,1.32186 -1.47754,1.362201 -2.268996,1.454341 -1.568207,0.182583 -2.3529,-0.072 -3.669883,-1.190651 -0.235348,-0.199902 -0.720001,-0.499397 -1.076999,-0.665536 -0.613074,-0.285308 -0.683162,-0.290531 -1.263051,-0.0941 -0.337673,0.11438 -1.040804,0.248778 -1.562504,0.298664 -0.521706,0.04988 -1.084131,0.16021 -1.249837,0.245169 -0.165702,0.08495 -0.706977,0.195084 -1.202825,0.244731 -1.117921,0.111933 -1.888769,0.60247 -2.109293,1.342281 -0.185052,0.620806 -0.185687,5.094517 -9.58e-4,6.391075 0.512382,3.595322 0.870939,5.154924 1.283863,5.584382 0.589419,0.613022 0.949504,0.662372 4.870808,0.667621 2.475516,0.0034 4.052874,-0.05447 4.685473,-0.171639 0.888898,-0.164639 0.96748,-0.158983 1.157602,0.08329 0.217585,0.277281 0.28894,2.210442 0.09143,2.477159 -0.268384,0.362443 -9.443708,0.741368 -11.577094,0.478113 z M 31.185507,16.06685 c 0.450229,-0.517552 0.512734,-0.974624 0.209442,-1.531603 -0.631766,-1.160194 -2.039694,-1.085076 -2.567938,0.137017 -0.189286,0.437909 -0.17985,0.532993 0.108674,1.095 0.24092,0.469282 0.42039,0.636884 0.755672,0.705696 0.656213,0.134677 1.137502,0.004 1.49415,-0.40611 z m 4.967618,16.024733 c -0.158134,-0.02758 -0.336131,-0.120047 -0.395545,-0.205525 -0.168515,-0.242436 -0.13122,-0.836783 0.06392,-1.018614 0.13204,-0.123039 1.852075,-0.164419 6.834531,-0.164419 h 6.658084 l 0.09226,0.342536 c 0.05074,0.188396 0.05074,0.496681 0,0.685079 l -0.09226,0.342537 -2.313072,0.01619 c -6.605571,0.04625 -10.590474,0.0471 -10.847914,0.0025 z M 9.1777517,28.126127 C 8.314624,27.291698 7.9299435,26.545693 7.6194398,25.10409 7.4083854,24.124202 7.3987485,23.816453 7.5529578,22.980357 c 0.2364038,-1.281755 0.6745128,-2.183602 1.3802553,-2.841225 0.5356917,-0.499173 0.6299487,-0.534328 1.4326299,-0.534328 0.640948,0 0.92603,0.06404 1.122255,0.252095 0.144677,0.138652 0.378839,0.290855 0.520368,0.338235 0.141524,0.04738 0.257319,0.180567 0.257319,0.295967 0,0.115405 0.06528,0.209826 0.145065,0.209826 0.07978,0 0.238454,0.20827 0.352593,0.462824 0.114145,0.254556 0.280452,0.50482 0.369573,0.556149 0.08913,0.05132 0.163038,0.228406 0.164257,0.393517 9.78e-4,0.165109 0.09757,0.546825 0.214103,0.848256 0.317922,0.822313 0.277906,2.302239 -0.09385,3.470983 -0.25646,0.806267 -0.45722,1.137783 -1.016447,1.678436 -0.689262,0.666371 -0.706932,0.673724 -1.61943,0.673724 -0.909636,0 -0.9321057,-0.0093 -1.6038973,-0.658689 z m 2.2276273,-1.088254 c 0.855938,-0.869457 1.038778,-2.214175 0.541249,-3.980612 -0.384176,-1.363982 -1.562822,-2.108939 -2.2375326,-1.414221 -0.2380076,0.245064 -0.2251793,0.270488 0.2754358,0.54572 1.0282528,0.565323 1.5272938,2.348526 0.9739838,3.480304 -0.170588,0.348943 -0.310167,0.689586 -0.310167,0.756984 0,0.0674 -0.16542,0.192772 -0.367595,0.278612 -0.4561939,0.193683 -0.469948,0.406473 -0.03676,0.568718 0.547498,0.205068 0.772604,0.15942 1.161388,-0.235505 z m 13.547129,-1.667248 c -0.277211,-0.215585 -0.34825,-0.469975 -0.472524,-1.692172 -0.149475,-1.470007 -0.05032,-2.234016 0.31822,-2.45199 0.351355,-0.20781 1.135583,-0.120702 1.436321,0.159538 0.210122,0.195797 0.29508,0.459832 0.297588,0.924851 0.0019,0.357953 0.05611,0.866622 0.120413,1.130375 0.170672,0.700139 0.03657,1.579072 -0.290947,1.906638 -0.351236,0.351303 -0.973673,0.361358 -1.409071,0.02277 z m 11.620111,-0.83587 c -0.613185,-0.227726 -0.759775,-0.651847 -0.80834,-2.338711 -0.05399,-1.87538 0.02846,-2.043178 1.003946,-2.043178 0.589289,0 0.663854,0.03914 0.848676,0.445296 0.257108,0.565034 0.527817,1.935957 0.527817,2.672982 0,0.88968 -0.81503,1.544774 -1.572099,1.263611 z"
     id="path117" />
  <text
     xml:space="preserve"
     style="font-weight:600;font-size:50.1848px;line-height:1.25;font-family:FreeSans;-inkscape-font-specification:'FreeSans, Semi-Bold';font-variant-ligatures:none;fill:#ffffff;stroke-width:1"
     x="58.379368"
     y="53.227089"
     id="text9012"
     transform="scale(1.0041177,0.99589918)"><tspan
       sodipodi:role="line"
       id="tspan9010"
       x="58.379368"
       y="53.227089"
       style="fill:#ffffff;stroke-width:1">mlc-ai</tspan></text>
</svg>
