<?xml version="1.0" encoding="UTF-8" standalone="no"?>
<svg
   width="104"
   height="104"
   viewBox="0 0 104 104"
   fill="none"
   version="1.1"
   id="svg46319"
   sodipodi:docname="logo-light-square-transparent.svg"
   inkscape:version="1.1.2 (0a00cf5339, 2022-02-04)"
   xmlns:inkscape="http://www.inkscape.org/namespaces/inkscape"
   xmlns:sodipodi="http://sodipodi.sourceforge.net/DTD/sodipodi-0.dtd"
   xmlns="http://www.w3.org/2000/svg"
   xmlns:svg="http://www.w3.org/2000/svg">
  <defs
     id="defs46323" />
  <sodipodi:namedview
     id="namedview46321"
     pagecolor="#505050"
     bordercolor="#eeeeee"
     borderopacity="1"
     inkscape:pageshadow="0"
     inkscape:pageopacity="0"
     inkscape:pagecheckerboard="0"
     showgrid="false"
     inkscape:zoom="8.3942308"
     inkscape:cx="51.821306"
     inkscape:cy="52"
     inkscape:window-width="2490"
     inkscape:window-height="1376"
     inkscape:window-x="70"
     inkscape:window-y="27"
     inkscape:window-maximized="1"
     inkscape:current-layer="svg46319" />
  <path
     style="fill:#363636;fill-opacity:1;stroke-width:0.999998"
     d="m 22.408977,89.179535 c -0.156283,-0.03177 -0.987481,-0.140939 -1.847094,-0.242655 -1.98889,-0.235353 -4.844309,-1.023847 -6.754384,-1.865159 -0.818748,-0.360627 -1.582722,-0.720001 -1.697766,-0.798617 -0.164321,-0.112346 0.162826,-0.55187 1.529687,-2.054035 3.423422,-3.762578 5.549658,-7.158292 6.585183,-10.516861 0.414524,-1.344469 0.461166,-1.679819 0.469784,-3.378093 l 0.0093,-1.88545 -1.183116,-1.481717 c -3.085235,-3.864061 -4.974784,-7.937481 -5.799215,-12.502014 -0.385342,-2.13342 -0.34973,-6.367097 0.07179,-8.541424 0.851668,-4.392851 2.705885,-8.339067 5.657859,-12.041385 l 1.252789,-1.571205 v -1.806887 c 0,-1.456896 -0.06468,-2.035144 -0.333635,-2.985289 -1.065622,-3.763745 -3.729502,-7.934778 -7.654544,-11.98533 l -0.880177,-0.908323 0.811046,-0.40516 c 3.554412,-1.775612 7.251835,-2.628362 11.396272,-2.628362 7.045938,0 13.350877,2.637064 18.664783,7.806604 l 0.975404,0.948907 1.795218,-0.268558 c 5.596188,-0.837184 11.592643,-0.843723 16.762754,-0.01831 5.689167,0.908321 10.64418,2.57018 15.447708,5.180997 8.985489,4.883812 14.78792,12.301724 16.353482,20.906495 0.357421,1.964505 0.357421,6.499605 0,8.464111 -1.538674,8.457071 -7.160976,15.757082 -15.937836,20.69374 -5.05121,2.841125 -10.376694,4.592099 -16.977752,5.582158 -1.573595,0.236016 -2.875149,0.287692 -7.246251,0.287692 -4.836513,0 -5.553415,-0.03455 -7.769775,-0.374546 l -2.441643,-0.374541 -0.968376,0.934805 c -2.508811,2.42187 -5.089856,4.225845 -7.79991,5.451592 -3.221208,1.45693 -6.628572,2.246353 -10.218447,2.367423 -1.094038,0.03687 -2.117038,0.0411 -2.27334,0.0092 z M 27.03376,83.53866 c 4.296122,-0.771229 9.182642,-3.841692 13.176217,-8.279334 l 1.603529,-1.781815 1.593358,0.351589 c 11.331535,2.500394 23.617185,0.800642 32.709631,-4.525468 0.625162,-0.366209 1.935882,-1.253688 2.912702,-1.972183 7.279297,-5.354236 10.707722,-12.797333 9.303234,-20.197254 -1.582077,-8.335573 -9.217347,-15.571415 -20.132264,-19.079059 -2.132191,-0.685209 -5.179095,-1.383817 -7.641808,-1.752151 -1.547825,-0.231508 -2.850739,-0.286088 -6.748966,-0.28274 -5.235391,0.0045 -6.892066,0.172084 -10.852591,1.097709 -8.372493,1.956782 -15.571349,6.228828 -19.671369,11.673673 -6.47857,8.603569 -5.314579,18.829814 3.029687,26.617338 l 0.780312,0.728252 -0.01122,2.172008 c -0.02767,5.12438 -1.431505,9.227659 -4.604482,13.458878 -0.637377,0.849957 -1.133557,1.573374 -1.102618,1.607592 0.03084,0.0342 0.403756,0.125942 0.828487,0.203854 1.195697,0.219316 3.487282,0.199912 4.828699,-0.04084 z m 8.869945,-27.724739 c -1.039526,-0.54384 -2.027007,-1.701211 -2.37741,-2.786433 -0.306584,-0.949507 -0.323465,-2.617198 -0.03552,-3.519415 0.755113,-2.366763 3.162471,-3.828817 5.349855,-3.24913 1.552194,0.411352 2.60374,1.385609 3.278842,3.037797 0.450174,1.101745 0.420057,2.802569 -0.07104,4.00928 -1.043059,2.563167 -3.849537,3.708614 -6.144693,2.507901 z m 16.058612,-0.0051 c -0.966357,-0.513042 -1.740538,-1.339928 -2.223968,-2.375323 -0.393344,-0.842491 -0.528017,-2.683633 -0.268803,-3.67504 0.629207,-2.406462 3.046978,-4.04314 5.23511,-3.543802 1.052144,0.240099 1.755994,0.644884 2.443703,1.405374 1.544467,1.707935 1.792043,4.391738 0.587538,6.369106 -0.947102,1.554802 -2.181854,2.272622 -3.908838,2.272405 -0.823235,-9.5e-5 -1.171432,-0.08463 -1.864742,-0.45272 z m 16.48167,0.24413 c -1.738477,-0.753733 -2.79033,-2.220978 -3.13147,-4.368098 -0.122877,-0.773424 0.267149,-2.383173 0.799855,-3.301184 0.976852,-1.683403 2.878247,-2.572808 4.640464,-2.170646 1.096143,0.250153 1.792164,0.663577 2.529398,1.502426 1.087403,1.23727 1.541835,3.367045 1.069193,5.011032 -0.423735,1.473918 -1.651314,2.855376 -2.980411,3.354019 -0.614532,0.230555 -2.369866,0.214048 -2.927029,-0.0275 z"
     id="path23314" />
</svg>
