<?xml version="1.0" encoding="UTF-8" standalone="no"?>
<svg
   viewBox="0 0 104 104"
   fill="none"
   version="1.1"
   id="svg45806"
   sodipodi:docname="logo-dark-square.svg"
   inkscape:version="1.1.2 (0a00cf5339, 2022-02-04)"
   xmlns:inkscape="http://www.inkscape.org/namespaces/inkscape"
   xmlns:sodipodi="http://sodipodi.sourceforge.net/DTD/sodipodi-0.dtd"
   xmlns="http://www.w3.org/2000/svg"
   xmlns:svg="http://www.w3.org/2000/svg">
  <defs
     id="defs45810" />
  <sodipodi:namedview
     id="namedview45808"
     pagecolor="#505050"
     bordercolor="#eeeeee"
     borderopacity="1"
     inkscape:pageshadow="0"
     inkscape:pageopacity="0"
     inkscape:pagecheckerboard="0"
     showgrid="false"
     inkscape:zoom="8.3942308"
     inkscape:cx="51.940435"
     inkscape:cy="52"
     inkscape:window-width="2490"
     inkscape:window-height="1376"
     inkscape:window-x="70"
     inkscape:window-y="27"
     inkscape:window-maximized="1"
     inkscape:current-layer="svg45806" />
  <rect
     width="104"
     height="104"
     rx="7"
     fill="#363636"
     id="rect45800" />
  <path
     style="fill:#ffffff;stroke-width:0.999998"
     d="m 53.802694,93.203617 c -1.031472,-0.537379 -1.052674,-0.674722 -1.052674,-6.818695 0,-3.528977 0.09436,-6.044657 0.23618,-6.297063 0.272769,-0.48549 2.508817,-1.61861 2.825829,-1.431995 0.11881,0.06995 0.212984,2.580722 0.212984,5.678429 v 5.553049 l 0.526335,0.121528 c 0.289488,0.06684 6.684502,0.09382 14.211127,0.05997 L 84.447269,90.00725 V 70.733548 51.459819 l -13.947036,-0.05744 c -11.383696,-0.0469 -13.994556,-0.0033 -14.205548,0.239238 -0.173371,0.198971 -0.264702,2.252502 -0.277331,6.235283 -0.01321,4.225679 -0.0966,5.984371 -0.288457,6.097319 -0.379925,0.223658 -2.335127,0.08168 -2.686465,-0.195071 -0.22288,-0.175559 -0.292412,-1.938071 -0.292412,-7.412082 v -7.181748 l 0.573652,-0.58958 0.573651,-0.589583 16.444609,0.0033 c 9.044543,0.0016 16.560443,0.07705 16.702014,0.167115 0.76657,0.48754 0.787063,1.061801 0.799966,22.41843 0.01384,23.076505 0.05048,22.39803 -1.223436,22.723069 -1.008916,0.257427 -32.313527,0.148182 -32.817782,-0.114519 z m -4.136567,-5.719598 c -2.358171,-1.022034 -4.99481,-4.108577 -4.40556,-5.157317 0.172128,-0.30634 0.496837,-0.455464 1.006177,-0.462085 0.413627,-0.0056 1.17311,-0.163625 1.68775,-0.35166 1.523441,-0.55661 2.78183,-0.748768 2.974733,-0.454242 0.195048,0.297783 0.216655,5.578966 0.02588,6.330416 -0.148178,0.583743 -0.159178,0.584555 -1.289013,0.09488 z M 68.01383,83.384987 c -0.427431,-0.196344 -0.526345,-0.425723 -0.526345,-1.220545 0,-0.97384 -0.160673,-1.213942 -1.514082,-2.26256 -0.213936,-0.165763 -0.329221,-0.449696 -0.256197,-0.630973 0.07306,-0.18128 0.132778,-0.471794 0.132778,-0.645598 0,-0.187316 0.234796,-0.316002 0.576593,-0.316002 0.734187,0 1.060903,-0.580231 1.060903,-1.884074 0,-0.876506 0.08408,-1.05859 0.590213,-1.278253 0.498911,-0.21652 0.696479,-0.181309 1.277134,0.227593 0.874959,0.616168 1.519158,0.61414 1.975336,-0.0065 0.304923,-0.41467 0.459712,-0.456724 1.007458,-0.273739 0.544189,0.181803 0.667496,0.375008 0.77487,1.2141 0.165934,1.296744 0.565993,1.962194 1.282622,2.13351 0.810804,0.193831 0.822075,1.330454 0.01664,1.68 -0.656157,0.284764 -1.438126,1.781202 -1.217258,2.329438 0.18313,0.454571 -0.462177,1.205256 -1.036075,1.205256 -0.221633,0 -0.534004,-0.15041 -0.694172,-0.33423 -0.364196,-0.417988 -1.337703,-0.417988 -2.105356,0 -0.687201,0.374186 -0.668039,0.3733 -1.345084,0.06231 z m 3.317971,-2.435677 c 1.650176,-0.716167 0.897626,-3.531272 -0.944011,-3.531272 -1.352302,0 -2.105294,1.483424 -1.510021,2.974765 0.307781,0.771075 1.392714,1.017109 2.454032,0.556507 z M 34.44322,80.16825 c -0.993211,-0.673118 -1.410169,-1.715513 -1.196146,-2.990368 0.231681,-1.380033 2.342167,-3.202157 6.075078,-5.245014 2.374152,-1.299264 7.44064,-3.650347 7.866367,-3.650347 0.196791,0 0.482015,-0.142555 0.633833,-0.316815 0.151822,-0.174242 0.684988,-0.382617 1.184816,-0.46305 0.499835,-0.08043 1.032998,-0.288806 1.184822,-0.463049 0.151806,-0.174251 0.417369,-0.316816 0.590105,-0.316816 0.172747,0 0.80061,-0.157338 1.395267,-0.349633 0.998051,-0.322757 1.168529,-0.319726 2.217101,0.03941 0.624763,0.213982 1.333609,0.647064 1.575233,0.962386 0.382842,0.499631 0.852779,2.038702 1.335113,4.372596 0.170538,0.82517 -0.743579,2.870781 -1.68252,3.765125 -0.82669,0.787427 -2.577637,1.905343 -2.984254,1.905343 -0.17735,0 -0.482533,0.152475 -0.678191,0.338844 -0.195661,0.186368 -0.833698,0.4239 -1.417857,0.527849 -0.584166,0.103948 -1.194788,0.291073 -1.356943,0.415824 -0.162162,0.124748 -0.768538,0.299938 -1.347513,0.389295 -0.578971,0.08937 -1.263152,0.268022 -1.520387,0.397001 -0.257244,0.128992 -1.152021,0.371553 -1.988393,0.539023 -0.83637,0.167476 -1.941742,0.396872 -2.456387,0.509763 -0.514643,0.112893 -2.200171,0.209629 -3.745627,0.214965 -2.674439,0.0094 -2.852032,-0.01881 -3.683517,-0.582356 z m -3.676463,-6.622112 c -0.594764,-2.728889 1.241773,-5.625031 4.416293,-6.964333 1.660164,-0.700406 2.715511,-0.717874 3.882179,-0.06429 2.006807,1.12429 2.055855,1.904865 0.175447,2.79222 -0.7398,0.349106 -1.608259,0.796576 -1.929907,0.994383 -2.261951,1.391046 -2.804766,1.781395 -3.907763,2.810134 -0.681254,0.6354 -1.23866,1.262075 -1.23866,1.392612 0,0.130522 -0.255699,0.237339 -0.568229,0.237339 -0.498865,0 -0.600116,-0.146263 -0.82936,-1.19809 z m 44.966694,0.522695 c -0.342009,-0.130945 -0.526337,-0.389853 -0.526337,-0.739295 0,-0.35472 -0.284148,-0.744215 -0.834804,-1.14427 -0.711911,-0.517213 -0.979447,-0.58584 -1.817321,-0.466161 -0.907605,0.129642 -1.013376,0.09056 -1.387505,-0.512706 -0.535109,-0.86285 -0.512265,-1.623276 0.06284,-2.092323 0.722559,-0.589288 0.641766,-2.160231 -0.157661,-3.065152 L 70.447161,65.34086 71.0093,64.360695 c 0.560016,-0.976467 0.852946,-1.106566 1.741547,-0.773461 0.839937,0.314854 1.902597,-0.375862 2.426841,-1.577408 0.452896,-1.03804 0.508082,-1.080285 1.410991,-1.080285 0.897254,0 0.950952,0.03995 1.189917,0.885241 0.164445,0.581691 0.531252,1.08939 1.069724,1.480598 0.708382,0.514644 0.899144,0.560767 1.407257,0.340251 0.916907,-0.397923 1.185015,-0.313767 1.712323,0.537499 0.49006,0.791147 0.652293,1.658396 0.31023,1.658396 -0.09939,0 -0.375541,0.344561 -0.613643,0.765691 -0.52576,0.929906 -0.35647,2.228413 0.336586,2.581706 0.589175,0.300344 0.580082,0.886046 -0.029,1.869349 -0.465193,0.751005 -0.53165,0.78 -1.498421,0.653789 -0.863391,-0.112714 -1.13485,-0.04253 -1.852492,0.478811 -0.554498,0.402848 -0.840856,0.793466 -0.840856,1.147008 0,0.370459 -0.185411,0.603253 -0.600044,0.753415 -0.700395,0.253644 -0.752973,0.253187 -1.446824,-0.01236 z m 2.311543,-4.282293 c 0.922868,-0.816104 1.216975,-1.737267 0.905948,-2.837465 -0.73683,-2.606409 -3.762451,-2.662903 -4.794234,-0.08954 -0.380774,0.949688 -0.376947,0.996795 0.155625,1.916369 0.887768,1.532918 2.613649,2.000204 3.732673,1.010622 z M 59.709538,68.79298 c -0.436479,-0.103948 -0.738027,-0.879985 -0.602756,-1.551219 0.07444,-0.369472 0.404296,-0.413321 3.529632,-0.469216 l 3.44751,-0.06166 v 0.984483 c 0,0.836612 -0.07908,1.002622 -0.526339,1.105255 -0.615291,0.141189 -5.248495,0.135139 -5.848047,-0.008 z M 43.15897,66.309844 c 0,-0.594774 -0.05813,-1.672651 -0.129087,-2.39529 -0.07102,-0.722636 -0.02551,-1.459202 0.101088,-1.6368 0.172058,-0.241402 1.075801,-0.367657 3.579515,-0.50009 4.187095,-0.221482 4.402017,-0.181804 4.402017,0.812746 0,1.187683 -0.371985,1.874248 -1.102885,2.035599 -0.358371,0.07913 -1.125282,0.345924 -1.70425,0.592899 -0.578973,0.246985 -1.631655,0.695875 -2.339279,0.997526 -0.707635,0.301659 -1.566017,0.689396 -1.907522,0.861646 -0.3415,0.172241 -0.683623,0.313171 -0.760265,0.313171 -0.07665,0 -0.139365,-0.48663 -0.139365,-1.081407 z m 16.002282,-3.460101 c -0.07046,-0.174928 -0.09442,-0.649536 -0.05315,-1.054673 0.09845,-0.96738 0.294471,-1.00176 4.935118,-0.865529 l 3.795182,0.111397 v 1.002678 1.002682 l -4.274494,0.06077 c -3.529411,0.05017 -4.296835,0.0056 -4.402636,-0.257318 z M 32.515245,60.273161 c -2.268734,-0.286168 -4.390825,-0.712973 -5.181773,-1.042175 -0.405427,-0.168747 -0.879128,-0.307155 -1.052673,-0.30757 -0.173548,-4.44e-4 -1.058241,-0.289055 -1.965984,-0.641408 -4.282946,-1.662489 -5.02291,-2.20333 -4.698575,-3.4342 0.11873,-0.450635 0.322541,-0.563377 1.185962,-0.656077 1.944246,-0.208734 3.86648,-2.251879 4.834746,-5.138863 0.578057,-1.723541 0.619944,-5.795208 0.07626,-7.413066 -0.830497,-2.471343 -2.136559,-4.335444 -3.992399,-5.698236 -0.579339,-0.425421 -2.489326,-0.858775 -3.106948,-0.704936 -0.313477,0.07809 -0.454431,-0.04961 -0.543227,-0.492064 -0.06596,-0.328622 -0.06972,-0.780353 -0.0085,-1.003836 0.152935,-0.557074 5.178566,-2.856648 8.019943,-3.669688 0.707634,-0.202489 1.61421,-0.503103 2.014603,-0.668028 0.400395,-0.164933 1.242539,-0.372486 1.871432,-0.46124 0.628883,-0.08875 1.551417,-0.297501 2.050067,-0.463894 0.498654,-0.166394 1.24511,-0.302536 1.658799,-0.302536 0.413689,0 1.26891,-0.148605 1.900497,-0.330242 0.631588,-0.181629 1.990476,-0.437842 3.019765,-0.569353 1.977549,-0.252677 3.391955,-0.636318 3.391955,-0.920025 0,-0.242886 1.345579,-1.522647 1.600968,-1.522647 0.117251,0 0.353316,-0.16085 0.524604,-0.357435 0.171295,-0.196592 0.552618,-0.44478 0.847395,-0.55153 0.632305,-0.228987 0.715079,-1.049199 0.197108,-1.953284 -0.515095,-0.899064 -1.298654,-2.730683 -1.298654,-3.035693 0,-0.729639 -1.147244,-2.267595 -2.047267,-2.744507 -0.722828,-0.383016 -1.060111,-0.754969 -1.357735,-1.497295 -0.383248,-0.955838 -0.37985,-1.020435 0.105446,-2.003825 0.275804,-0.558887 0.754429,-1.125933 1.063606,-1.26012 0.594275,-0.257906 2.703792,-0.073 2.703792,0.237011 0,0.09628 0.210541,0.406295 0.467858,0.688896 0.578967,0.63584 0.653135,2.472777 0.116981,2.896629 -0.438786,0.346865 -0.445941,0.895508 -0.02231,1.708782 0.810302,1.555501 1.308894,2.712496 1.308894,3.037344 0,0.193807 0.102408,0.412657 0.227566,0.486341 0.125142,0.0737 0.333891,0.51005 0.463828,0.969702 0.350698,1.240505 1.022269,1.819263 2.111044,1.819263 0.502033,0 0.970479,0.0889 1.040984,0.197558 0.07046,0.108648 0.516484,0.266943 0.991082,0.351755 0.474591,0.08482 1.292631,0.489596 1.817859,0.899544 l 0.954973,0.745363 7.517618,0.07268 c 6.547689,0.06332 7.573562,0.119593 7.951221,0.436265 0.238478,0.199966 0.661098,0.429496 0.939162,0.510073 1.011595,0.293139 2.19939,2.3463 2.523824,4.362564 0.08874,0.551476 0.272022,1.341888 0.407319,1.756468 0.226102,0.692867 0.576233,2.82896 1.118195,6.822007 0.244468,1.801223 0.307586,5.9248 0.09863,6.443489 -0.11469,0.284684 -0.540407,0.35245 -2.214081,0.35245 -2.481452,0 -2.5537,-0.07028 -2.561998,-2.492052 -0.0031,-0.896537 -0.107005,-2.031148 -0.230955,-2.521343 -0.123948,-0.490196 -0.293253,-2.094485 -0.376207,-3.565081 -0.08296,-1.470601 -0.294824,-3.011927 -0.470824,-3.425178 -0.175998,-0.413256 -0.319996,-1.06679 -0.319996,-1.452301 0,-0.385506 -0.258352,-1.063067 -0.574109,-1.505679 -0.689202,-0.966082 -1.086933,-1.040841 -5.858911,-1.101355 -5.185768,-0.06571 -4.515713,-0.275158 -7.139581,2.231084 -2.250521,2.149645 -2.350649,2.215248 -3.609793,2.365088 -2.494893,0.296922 -3.743278,-0.117088 -5.838493,-1.936268 -0.374421,-0.325086 -1.145465,-0.812133 -1.713421,-1.082313 -0.975352,-0.463976 -1.086856,-0.47247 -2.009414,-0.153028 -0.537211,0.186008 -1.655837,0.404569 -2.48582,0.485695 -0.829994,0.08112 -1.724768,0.260538 -1.988393,0.398701 -0.263618,0.138148 -1.124744,0.317251 -1.913598,0.397988 -1.778524,0.182029 -3.004883,0.979754 -3.355719,2.182854 -0.294403,1.009571 -0.295414,8.284842 -0.0015,10.393339 0.815159,5.846811 1.385596,8.383079 2.042525,9.081475 0.937719,0.996913 1.510586,1.077167 7.749071,1.085703 3.938349,0.0056 6.447802,-0.08858 7.454217,-0.279124 1.414166,-0.26774 1.539184,-0.258542 1.841653,0.135449 0.346161,0.450922 0.45968,3.59468 0.145458,4.028423 -0.426978,0.589415 -15.024193,1.205633 -18.418241,0.77752 z M 51.971302,31.557349 c 0.716279,-0.841656 0.815719,-1.584959 0.333206,-2.490733 -1.00509,-1.886739 -3.244992,-1.764581 -4.085386,0.22282 -0.301139,0.712139 -0.286128,0.866768 0.172891,1.780719 0.383285,0.763159 0.668807,1.035717 1.202214,1.147621 1.043983,0.219016 1.809676,0.0065 2.377075,-0.660427 z m 7.903087,26.059857 c -0.251578,-0.04485 -0.534757,-0.195224 -0.629281,-0.33423 -0.268093,-0.394256 -0.20876,-1.360799 0.101689,-1.656498 0.210065,-0.200089 2.946505,-0.267382 10.873198,-0.267382 h 10.592486 l 0.146778,0.557041 c 0.08072,0.306375 0.08072,0.807716 0,1.114094 l -0.146778,0.557042 -3.679915,0.02633 c -10.508941,0.07522 -16.848607,0.07659 -17.258173,0.0041 z M 16.958704,51.168474 c -1.373168,-1.356971 -1.985164,-2.570145 -2.479151,-4.914519 -0.335772,-1.593521 -0.351102,-2.09399 -0.105764,-3.453673 0.376099,-2.084424 1.073096,-3.551032 2.195876,-4.620476 0.852243,-0.811769 1.002199,-0.868939 2.279202,-0.868939 1.019697,0 1.473239,0.104147 1.785418,0.409964 0.230169,0.225479 0.602703,0.472995 0.827864,0.550046 0.225154,0.07705 0.409375,0.293643 0.409375,0.48131 0,0.187675 0.103855,0.341225 0.230786,0.341225 0.126924,0 0.379362,0.338694 0.560948,0.752656 0.181596,0.413966 0.446177,0.820952 0.587962,0.904426 0.141799,0.08346 0.25938,0.37144 0.261319,0.639947 0.0015,0.268505 0.155227,0.889262 0.340621,1.379457 0.505789,1.337268 0.442127,3.743964 -0.149308,5.644607 -0.408007,1.311173 -0.727401,1.850293 -1.617087,2.729519 -1.096561,1.08367 -1.124672,1.095628 -2.576384,1.095628 -1.44716,0 -1.482907,-0.01513 -2.551674,-1.071178 z m 3.543978,-1.769749 c 1.361731,-1.413934 1.652614,-3.600751 0.861085,-6.473379 -0.611194,-2.218145 -2.486326,-3.429614 -3.559738,-2.299845 -0.378651,0.39853 -0.358243,0.439875 0.438197,0.887465 1.635869,0.919344 2.429804,3.819237 1.549531,5.659765 -0.271392,0.567461 -0.493451,1.121424 -0.493451,1.231028 0,0.109608 -0.26317,0.313491 -0.584815,0.453086 -0.725768,0.314973 -0.747649,0.661018 -0.05849,0.924865 0.871027,0.333487 1.229152,0.259253 1.847677,-0.382985 z m 21.552412,-2.711323 c -0.441022,-0.350591 -0.554039,-0.764287 -0.751749,-2.751857 -0.237803,-2.390565 -0.08005,-3.633017 0.506263,-3.987493 0.558978,-0.337946 1.806623,-0.196288 2.285073,0.259446 0.334288,0.31841 0.469449,0.74779 0.473439,1.504017 0.0031,0.582113 0.08927,1.409325 0.191568,1.838247 0.271525,1.138585 0.05818,2.56793 -0.462874,3.100626 -0.558789,0.571299 -1.549036,0.587651 -2.24172,0.03703 z m 18.486677,-1.359315 c -0.975529,-0.370334 -1.208742,-1.060051 -1.286005,-3.803275 -0.0859,-3.049794 0.04528,-3.322672 1.597199,-3.322672 0.937512,0 1.056139,0.06365 1.350176,0.724152 0.409038,0.918874 0.839715,3.148307 0.839715,4.346877 0,1.446821 -1.296647,2.512153 -2.501085,2.054918 z"
     id="path117" />
</svg>
