<?xml version="1.0" encoding="UTF-8" standalone="no"?>
<svg
   viewBox="0 0 209 60"
   fill="none"
   version="1.1"
   id="svg45141"
   sodipodi:docname="logo-dark-lettered.svg"
   inkscape:version="1.1.2 (0a00cf5339, 2022-02-04)"
   xmlns:inkscape="http://www.inkscape.org/namespaces/inkscape"
   xmlns:sodipodi="http://sodipodi.sourceforge.net/DTD/sodipodi-0.dtd"
   xmlns="http://www.w3.org/2000/svg"
   xmlns:svg="http://www.w3.org/2000/svg">
  <defs
     id="defs45145" />
  <sodipodi:namedview
     id="namedview45143"
     pagecolor="#505050"
     bordercolor="#eeeeee"
     borderopacity="1"
     inkscape:pageshadow="0"
     inkscape:pageopacity="0"
     inkscape:pagecheckerboard="0"
     showgrid="false"
     inkscape:zoom="6.0287081"
     inkscape:cx="104.5"
     inkscape:cy="29.94008"
     inkscape:window-width="2490"
     inkscape:window-height="1376"
     inkscape:window-x="70"
     inkscape:window-y="27"
     inkscape:window-maximized="1"
     inkscape:current-layer="svg45141" />
  <text
     xml:space="preserve"
     style="font-weight:600;font-size:36.6331px;line-height:1.25;font-family:FreeSans;-inkscape-font-specification:'FreeSans, Semi-Bold';font-variant-ligatures:none;fill:#ffffff;stroke-width:0.999995"
     x="62.221848"
     y="48.474785"
     id="text9012-0"
     transform="scale(1.0426955,0.95905277)"><tspan
       sodipodi:role="line"
       id="tspan9010-8"
       x="62.221848"
       y="48.474785"
       style="fill:#ffffff;stroke-width:0.999995">S.A.F.E.</tspan></text>
  <path
     style="fill:#ffffff;stroke-width:0.999999"
     d="m 17.053977,51.088939 c -0.08361,-0.01631 -0.52823,-0.07236 -0.988055,-0.124582 -1.063913,-0.120833 -2.591349,-0.525655 -3.613104,-0.957595 -0.437963,-0.18515 -0.84664,-0.369657 -0.908175,-0.410019 -0.08794,-0.05768 0.08715,-0.283337 0.818268,-1.054566 1.831278,-1.931752 2.96866,-3.675152 3.522585,-5.399481 0.221743,-0.690266 0.24669,-0.862439 0.251306,-1.734353 l 0.0051,-0.968012 -0.632884,-0.760731 c -1.650394,-1.983855 -2.661167,-4.075197 -3.102181,-6.418682 -0.206122,-1.095323 -0.187079,-3.268943 0.03842,-4.385268 0.455586,-2.255342 1.447451,-4.281376 3.026547,-6.18219 l 0.670148,-0.806675 v -0.927677 c 0,-0.747988 -0.03457,-1.044867 -0.178473,-1.532683 -0.570032,-1.932351 -1.995009,-4.073809 -4.094622,-6.15341 l -0.470831,-0.466344 0.433856,-0.208014 c 1.90135,-0.91162 3.879198,-1.349432 6.096169,-1.349432 3.769056,0 7.141739,1.3539 9.984291,4.008003 l 0.521771,0.48718 0.960311,-0.137881 c 2.993548,-0.42982 6.20121,-0.433177 8.96684,-0.0094 3.043287,0.466343 5.693856,1.319561 8.263391,2.659985 4.806578,2.507407 7.910453,6.315851 8.747914,10.733642 0.191194,1.0086 0.191194,3.336974 0,4.345575 -0.823078,4.34196 -3.830597,8.089872 -8.525574,10.624411 -2.702027,1.458667 -5.55077,2.357638 -9.081852,2.865946 -0.841758,0.121173 -1.537994,0.147704 -3.876213,0.147704 -2.587182,0 -2.970667,-0.01774 -4.156255,-0.192296 L 28.426566,46.5898 27.908564,47.06974 c -1.342031,1.243417 -2.722705,2.169599 -4.172388,2.798912 -1.72311,0.748005 -3.545795,1.153304 -5.466116,1.215463 -0.585234,0.01893 -1.132463,0.0211 -1.216068,0.0047 z m 2.473925,-2.896092 c 2.298112,-0.395958 4.912039,-1.97237 7.048313,-4.250708 l 0.857762,-0.914805 0.852333,0.18051 c 6.061538,1.283732 12.633462,0.411059 17.497254,-2.323429 0.334416,-0.188016 1.035555,-0.643658 1.558082,-1.012542 3.89389,-2.748928 5.727846,-6.570302 4.976548,-10.369509 -0.846295,-4.279582 -4.930605,-7.994549 -10.769285,-9.795415 -1.140566,-0.351794 -2.770436,-0.710468 -4.087807,-0.899575 -0.827973,-0.118859 -1.524936,-0.146881 -3.6102,-0.145162 -2.800553,0.0023 -3.686747,0.08835 -5.805345,0.563577 -4.478671,1.004635 -8.329523,3.197954 -10.522733,5.993402 -3.46556,4.417174 -2.842912,9.667449 1.620655,13.665656 l 0.417411,0.373893 -0.0063,1.115135 c -0.01482,2.630917 -0.765745,4.737589 -2.46306,6.909947 -0.340953,0.436378 -0.606374,0.807789 -0.589823,0.825357 0.01655,0.01756 0.215982,0.06466 0.44318,0.104661 0.639616,0.112599 1.865446,0.102637 2.583,-0.02097 z m 4.744773,-14.234209 c -0.556074,-0.279214 -1.084308,-0.873422 -1.271747,-1.430588 -0.164001,-0.487488 -0.173025,-1.3437 -0.01904,-1.806909 0.403936,-1.215124 1.691692,-1.96576 2.861783,-1.668142 0.830306,0.211193 1.392813,0.711388 1.753937,1.559641 0.240813,0.565649 0.224701,1.438872 -0.03798,2.058412 -0.557955,1.31596 -2.059218,1.904046 -3.286953,1.287586 z m 8.590174,-0.0026 c -0.516927,-0.263402 -0.931062,-0.687935 -1.189656,-1.219519 -0.210414,-0.432545 -0.282453,-1.377809 -0.14379,-1.886809 0.336574,-1.235506 1.629909,-2.075796 2.800393,-1.81943 0.56282,0.12327 0.939332,0.331091 1.307206,0.721536 0.826177,0.876874 0.958612,2.25477 0.31429,3.269974 -0.50663,0.798254 -1.167128,1.166791 -2.090945,1.16668 -0.440362,-4.9e-5 -0.626629,-0.04345 -0.997498,-0.232432 z m 8.816486,0.125339 c -0.929958,-0.386975 -1.492622,-1.140276 -1.675107,-2.242633 -0.06573,-0.397085 0.142905,-1.223549 0.427864,-1.694867 0.522544,-0.864279 1.539651,-1.32091 2.482308,-1.114435 0.586356,0.128431 0.958676,0.340688 1.353042,0.771363 0.581681,0.635229 0.824769,1.728681 0.57194,2.572723 -0.226667,0.756727 -0.883332,1.465984 -1.594301,1.721993 -0.32873,0.11837 -1.267705,0.109895 -1.565746,-0.01412 z"
     id="path23314" />
</svg>
